<svg xmlns="http://www.w3.org/2000/svg" viewBox="0 0 128.50383 79.371101">
  <defs>
    <linearGradient id='cg' x1='0%' y1='0%' x2='100%' y2='0%'>
      <stop offset='0%' style='stop-color:#7700ff;stop-opacity:1' />
      <stop offset='100%' style='stop-color:#77ffff;stop-opacity:1' />
    </linearGradient>
  </defs>
  <path fill="url(#cg)" d="M 64.25193,0 A 64.251971,39.685048 0 0 0 0,39.68554 64.251971,39.685048 0 0 0 64.25193,79.3711 64.251971,39.685048 0 0 0 82.62694,77.71484 32.125964,19.854936 0 0 0 96.37693,61.43164 32.125964,19.854936 0 0 0 64.25193,41.57812 30.236222,15.118111 0 0 1 34.01563,26.45703 a 30.236222,15.118111 0 0 1 30.2363,-15.11524 30.236222,15.118111 0 0 1 30.23634,15.11524 30.236222,15.118111 0 0 1 -4.69335,8.08984 50.472198,31.193532 0 0 1 24.92969,26.88477 50.472198,31.193532 0 0 1 -0.2657,3.01758 A 64.251971,39.685048 0 0 0 128.50383,39.68554 64.251971,39.685048 0 0 0 64.25186,0 Z m 0,17.01758 A 15.118111,9.4488193 0 0 0 49.13476,26.46679 15.118111,9.4488193 0 0 0 64.25193,35.91601 15.118111,9.4488193 0 0 0 79.3711,26.46679 15.118111,9.4488193 0 0 0 64.25193,17.01758 Z" />
</svg>