<svg xmlns="http://www.w3.org/2000/svg" xmlns:xlink="http://www.w3.org/1999/xlink" version="1.1" baseProfile="full" width="1020" height="574"><rect width="1020" height="574" x="0" y="0" id="0" fill="#fff"></rect><g><path d="M663.4313 208.8228C678.4002 201.1958 678.4002 201.1958 682.3713 200.2424C686.3425 199.289 686.3425 199.289 714.1425 199.289" fill="none" stroke="rgb(0,0,0)"></path><path d="M520.8125 458.8602C521.8674 475.6271 521.8674 475.6271 524.0993 477.7229C526.3311 479.8188 526.3311 479.8188 554.1311 479.8188" fill="none" stroke="rgb(0,0,0)"></path><path d="M346.2281 340.2127C330.2503 345.4042 330.2503 345.4042 326.1531 346.0531C322.0559 346.7021 322.0559 346.7021 294.2559 346.7021" fill="none" stroke="rgb(0,0,0)"></path><path d="M359.1 204.042C344.378 195.9486 344.378 195.9486 340.4378 194.9369C336.4975 193.9252 336.4975 193.9252 308.6975 193.9252" fill="none" stroke="rgb(0,0,0)"></path><path d="M451.6693 124.9803C445.9785 109.1735 445.9785 109.1735 443.1672 107.1977C440.3558 105.2218 440.3558 105.2218 412.5558 105.2218" fill="none" stroke="rgb(0,0,0)"></path><path d="M510 114.8A172.2 172.2 0 0 1 649.3127 388.2166L510 287Z" fill="rgb(64,161,234)"></path><path d="M649.3127 388.2166A172.2 172.2 0 0 1 384.4716 404.879L510 287Z" fill="rgb(24,132,214)"></path><path d="M384.4716 404.879A172.2 172.2 0 0 1 339.1578 265.4176L510 287Z" fill="rgb(12,66,107)"></path><path d="M339.1578 265.4176A172.2 172.2 0 0 1 400.2356 154.3176L510 287Z" fill="rgb(10,57,92)"></path><path d="M400.2356 154.3176A172.2 172.2 0 0 1 510 114.8L510 287Z" fill="rgb(9,52,84)"></path><text dominant-baseline="central" text-anchor="start" style="font-size:1.2rem;font-family:sans-serif;" xml:space="preserve" transform="translate(719.1425 199.289)" fill="rgb(0,0,0)">Back-end systems and microservices</text><text dominant-baseline="central" text-anchor="start" style="font-size:1.2rem;font-family:sans-serif;" xml:space="preserve" transform="translate(559.1311 479.8188)" fill="rgb(0,0,0)">Front-end and data visualization</text><text dominant-baseline="central" text-anchor="end" style="font-size:1.2rem;font-family:sans-serif;" xml:space="preserve" transform="translate(289.2559 346.7021)" fill="rgb(0,0,0)">Databases and data pipelines</text><text dominant-baseline="central" text-anchor="end" style="font-size:1.2rem;font-family:sans-serif;" xml:space="preserve" transform="translate(303.6975 193.9252)" fill="rgb(0,0,0)">Infrastructure and CI/CD</text><text dominant-baseline="central" text-anchor="end" style="font-size:1.2rem;font-family:sans-serif;" xml:space="preserve" transform="translate(407.5558 105.2218)" fill="rgb(0,0,0)">Blockchain and DApps</text></g></svg>