<svg xmlns="http://www.w3.org/2000/svg" xmlns:xlink="http://www.w3.org/1999/xlink" version="1.1" baseProfile="full" width="900" height="900"><rect width="900" height="900" x="0" y="0" id="0" fill="#fff"></rect><g><path d="M450 342A108 108 0 0 1 505.0386 542.9234L468.3462 480.9745A36 36 0 0 0 450 414Z" fill="#00aeff" stroke="white" stroke-width="0" stroke-linejoin="bevel"></path><path d="M450 162A288 288 0 0 1 574.132 190.1245L512.066 320.0623A144 144 0 0 0 450 306Z" fill="rgb(42,187,255)" stroke="white" stroke-width="0" stroke-linejoin="bevel"></path><path d="M450 0A450 450 0 0 1 470.0461 0.4467L464.4332 126.3216A324 324 0 0 0 450 126Z" fill="rgb(85,201,255)" stroke="white" stroke-width="0" stroke-linejoin="bevel"></path><path d="M470.0461 0.4467A450 450 0 0 1 490.0524 1.786L478.8377 127.2859A324 324 0 0 0 464.4332 126.3216Z" fill="rgb(85,201,255)" stroke="white" stroke-width="0" stroke-linejoin="bevel"></path><path d="M490.0524 1.786A450 450 0 0 1 509.9791 4.0151L493.185 128.8909A324 324 0 0 0 478.8377 127.2859Z" fill="rgb(85,201,255)" stroke="white" stroke-width="0" stroke-linejoin="bevel"></path><path d="M574.132 190.1245A288 288 0 0 1 591.2125 198.996L520.6063 324.498A144 144 0 0 0 512.066 320.0623Z" fill="rgb(42,187,255)" stroke="white" stroke-width="0" stroke-linejoin="bevel"></path><path d="M591.2125 198.996A288 288 0 0 1 643.186 236.4042L546.593 343.2021A144 144 0 0 0 520.6063 324.498Z" fill="rgb(42,187,255)" stroke="white" stroke-width="0" stroke-linejoin="bevel"></path><path d="M670.6446 57.8062A450 450 0 0 1 687.8966 68.0246L621.2855 174.9777A324 324 0 0 0 608.8641 167.6205Z" fill="rgb(85,201,255)" stroke="white" stroke-width="0" stroke-linejoin="bevel"></path><path d="M687.8966 68.0246A450 450 0 0 1 704.6762 79.0013L633.3669 182.8809A324 324 0 0 0 621.2855 174.9777Z" fill="rgb(85,201,255)" stroke="white" stroke-width="0" stroke-linejoin="bevel"></path><path d="M704.6762 79.0013A450 450 0 0 1 720.9502 90.7146L645.0841 191.3145A324 324 0 0 0 633.3669 182.8809Z" fill="rgb(85,201,255)" stroke="white" stroke-width="0" stroke-linejoin="bevel"></path><path d="M643.186 236.4042A288 288 0 0 1 737.1247 427.5637L593.5624 438.7819A144 144 0 0 0 546.593 343.2021Z" fill="rgb(42,187,255)" stroke="white" stroke-width="0" stroke-linejoin="bevel"></path><path d="M751.8531 116.2566A450 450 0 0 1 896.6254 394.9929L771.5703 410.3949A324 324 0 0 0 667.3343 209.7047Z" fill="rgb(85,201,255)" stroke="white" stroke-width="0" stroke-linejoin="bevel"></path><path d="M896.6254 394.9929A450 450 0 0 1 898.6324 414.9433L773.0153 424.7592A324 324 0 0 0 771.5703 410.3949Z" fill="rgb(85,201,255)" stroke="white" stroke-width="0" stroke-linejoin="bevel"></path><path d="M737.1247 427.5637A288 288 0 0 1 737.5533 466.0339L593.7767 458.0169A144 144 0 0 0 593.5624 438.7819Z" fill="rgb(42,187,255)" stroke="white" stroke-width="0" stroke-linejoin="bevel"></path><path d="M898.6324 414.9433A450 450 0 0 1 899.7487 434.9633L773.8191 439.1735A324 324 0 0 0 773.0153 424.7592Z" fill="rgb(85,201,255)" stroke="white" stroke-width="0" stroke-linejoin="bevel"></path><path d="M899.7487 434.9633A450 450 0 0 1 899.9721 455.0131L773.9799 453.6094A324 324 0 0 0 773.8191 439.1735Z" fill="rgb(85,201,255)" stroke="white" stroke-width="0" stroke-linejoin="bevel"></path><path d="M737.5533 466.0339A288 288 0 0 1 596.7696 697.7957L523.3848 573.8978A144 144 0 0 0 593.7767 458.0169Z" fill="rgb(42,187,255)" stroke="white" stroke-width="0" stroke-linejoin="bevel"></path><path d="M899.3021 475.0529A450 450 0 0 1 897.74 495.0431L772.3728 482.431A324 324 0 0 0 773.4975 468.0381Z" fill="rgb(85,201,255)" stroke="white" stroke-width="0" stroke-linejoin="bevel"></path><path d="M897.74 495.0431A450 450 0 0 1 895.289 514.9437L770.6081 496.7595A324 324 0 0 0 772.3728 482.431Z" fill="rgb(85,201,255)" stroke="white" stroke-width="0" stroke-linejoin="bevel"></path><path d="M895.289 514.9438A450 450 0 0 1 876.7191 592.8663L757.2378 552.8638A324 324 0 0 0 770.6081 496.7595Z" fill="rgb(85,201,255)" stroke="white" stroke-width="0" stroke-linejoin="bevel"></path><path d="M876.7191 592.8663A450 450 0 0 1 869.9313 611.7335L752.3505 566.4481A324 324 0 0 0 757.2378 552.8638Z" fill="rgb(85,201,255)" stroke="white" stroke-width="0" stroke-linejoin="bevel"></path><path d="M869.9313 611.7335A450 450 0 0 1 862.3097 630.2796L746.863 579.8013A324 324 0 0 0 752.3505 566.4481Z" fill="rgb(85,201,255)" stroke="white" stroke-width="0" stroke-linejoin="bevel"></path><path d="M862.3097 630.2796A450 450 0 0 1 844.6275 666.2618L734.1318 605.7085A324 324 0 0 0 746.863 579.8013Z" fill="rgb(85,201,255)" stroke="white" stroke-width="0" stroke-linejoin="bevel"></path><path d="M844.6275 666.2618A450 450 0 0 1 834.6019 683.6265L726.9134 618.2111A324 324 0 0 0 734.1318 605.7085Z" fill="rgb(85,201,255)" stroke="white" stroke-width="0" stroke-linejoin="bevel"></path><path d="M834.6019 683.6265A450 450 0 0 1 823.8128 700.5274L719.1452 630.3797A324 324 0 0 0 726.9134 618.2111Z" fill="rgb(85,201,255)" stroke="white" stroke-width="0" stroke-linejoin="bevel"></path><path d="M823.8128 700.5274A450 450 0 0 1 800.031 732.8044L702.0223 653.6192A324 324 0 0 0 719.1452 630.3797Z" fill="rgb(85,201,255)" stroke="white" stroke-width="0" stroke-linejoin="bevel"></path><path d="M505.0386 542.9234A108 108 0 0 1 421.4669 554.1627L440.489 484.7209A36 36 0 0 0 468.3462 480.9745Z" fill="#00d4ff" stroke="white" stroke-width="0" stroke-linejoin="bevel"></path><path d="M596.7696 697.7957A288 288 0 0 1 475.6335 736.857L462.8168 593.4285A144 144 0 0 0 523.3848 573.8978Z" fill="rgb(42,219,255)" stroke="white" stroke-width="0" stroke-linejoin="bevel"></path><path d="M475.6335 736.857A288 288 0 0 1 450 738L450 594A144 144 0 0 0 462.8168 593.4285Z" fill="rgb(42,219,255)" stroke="white" stroke-width="0" stroke-linejoin="bevel"></path><path d="M450 738A288 288 0 0 1 424.3665 736.857L437.1832 593.4285A144 144 0 0 0 450 594Z" fill="rgb(42,219,255)" stroke="white" stroke-width="0" stroke-linejoin="bevel"></path><path d="M424.3665 736.857A288 288 0 0 1 398.9364 733.437L424.4682 591.7185A144 144 0 0 0 437.1832 593.4285Z" fill="rgb(42,219,255)" stroke="white" stroke-width="0" stroke-linejoin="bevel"></path><path d="M398.9364 733.437A288 288 0 0 1 373.9117 727.7671L411.9559 588.8836A144 144 0 0 0 424.4682 591.7185Z" fill="rgb(42,219,255)" stroke="white" stroke-width="0" stroke-linejoin="bevel"></path><path d="M421.4669 554.1627A108 108 0 0 1 365.9926 517.8731L421.9975 472.6244A36 36 0 0 0 440.489 484.7209Z" fill="#00efa9" stroke="white" stroke-width="0" stroke-linejoin="bevel"></path><path d="M373.9117 727.7671A288 288 0 0 1 281.7578 683.7489L365.8789 566.8745A144 144 0 0 0 411.9559 588.8836Z" fill="rgb(42,241,183)" stroke="white" stroke-width="0" stroke-linejoin="bevel"></path><path d="M331.1121 884.0111A450 450 0 0 1 274.3248 864.2925L323.5139 748.2906A324 324 0 0 0 364.4007 762.488Z" fill="rgb(85,244,197)" stroke="white" stroke-width="0" stroke-linejoin="bevel"></path><path d="M274.3248 864.2924A450 450 0 0 1 256.0438 856.0554L310.3515 742.3599A324 324 0 0 0 323.5139 748.2906Z" fill="rgb(85,244,197)" stroke="white" stroke-width="0" stroke-linejoin="bevel"></path><path d="M256.0438 856.0554A450 450 0 0 1 238.1478 847.0122L297.4664 735.8488A324 324 0 0 0 310.3515 742.3599Z" fill="rgb(85,244,197)" stroke="white" stroke-width="0" stroke-linejoin="bevel"></path><path d="M238.1478 847.0122A450 450 0 0 1 220.6725 837.1807L284.8842 728.7701A324 324 0 0 0 297.4664 735.8488Z" fill="rgb(85,244,197)" stroke="white" stroke-width="0" stroke-linejoin="bevel"></path><path d="M220.6725 837.1807A450 450 0 0 1 203.6525 826.5805L272.6298 721.138A324 324 0 0 0 284.8842 728.7701Z" fill="rgb(85,244,197)" stroke="white" stroke-width="0" stroke-linejoin="bevel"></path><path d="M203.6525 826.5805A450 450 0 0 1 187.1216 815.2327L260.7275 712.9675A324 324 0 0 0 272.6298 721.138Z" fill="rgb(85,244,197)" stroke="white" stroke-width="0" stroke-linejoin="bevel"></path><path d="M281.7578 683.7489A288 288 0 0 1 225.9802 630.9948L337.9901 540.4974A144 144 0 0 0 365.8789 566.8745Z" fill="rgb(42,241,183)" stroke="white" stroke-width="0" stroke-linejoin="bevel"></path><path d="M187.1216 815.2327A450 450 0 0 1 155.6572 790.3856L238.0732 695.0776A324 324 0 0 0 260.7275 712.9675Z" fill="rgb(85,244,197)" stroke="white" stroke-width="0" stroke-linejoin="bevel"></path><path d="M155.6572 790.3856A450 450 0 0 1 140.7863 776.9356L227.3662 685.3937A324 324 0 0 0 238.0732 695.0776Z" fill="rgb(85,244,197)" stroke="white" stroke-width="0" stroke-linejoin="bevel"></path><path d="M140.7863 776.9356A450 450 0 0 1 126.5293 762.8366L217.1011 675.2423A324 324 0 0 0 227.3662 685.3937Z" fill="rgb(85,244,197)" stroke="white" stroke-width="0" stroke-linejoin="bevel"></path><path d="M126.5293 762.8366A450 450 0 0 1 112.9146 748.1164L207.2985 664.6438A324 324 0 0 0 217.1011 675.2423Z" fill="rgb(85,244,197)" stroke="white" stroke-width="0" stroke-linejoin="bevel"></path><path d="M112.9146 748.1164A450 450 0 0 1 99.969 732.8044L197.9777 653.6192A324 324 0 0 0 207.2985 664.6438Z" fill="rgb(85,244,197)" stroke="white" stroke-width="0" stroke-linejoin="bevel"></path><path d="M365.9926 517.8731A108 108 0 0 1 343.9311 470.3317L414.6437 456.7772A36 36 0 0 0 421.9975 472.6244Z" fill="#55ff11" stroke="white" stroke-width="0" stroke-linejoin="bevel"></path><path d="M225.9802 630.9948A288 288 0 0 1 214.3913 615.6278L332.1957 532.8139A144 144 0 0 0 337.9901 540.4974Z" fill="rgb(113,255,56)" stroke="white" stroke-width="0" stroke-linejoin="bevel"></path><path d="M214.3913 615.6278A288 288 0 0 1 188.7578 571.2292L319.3789 510.6146A144 144 0 0 0 332.1957 532.8139Z" fill="rgb(113,255,56)" stroke="white" stroke-width="0" stroke-linejoin="bevel"></path><path d="M81.8615 708.7934A450 450 0 0 1 55.3725 666.2618L165.8682 605.7085A324 324 0 0 0 184.9402 636.3312Z" fill="rgb(141,255,96)" stroke="white" stroke-width="0" stroke-linejoin="bevel"></path><path d="M55.3725 666.2618A450 450 0 0 1 41.8091 639.4206L156.1025 586.3829A324 324 0 0 0 165.8682 605.7085Z" fill="rgb(141,255,96)" stroke="white" stroke-width="0" stroke-linejoin="bevel"></path><path d="M188.7578 571.2292A288 288 0 0 1 181.244 553.5094L315.622 501.7547A144 144 0 0 0 319.3789 510.6146Z" fill="rgb(113,255,56)" stroke="white" stroke-width="0" stroke-linejoin="bevel"></path><path d="M181.244 553.5094A288 288 0 0 1 167.1495 504.2179L308.5747 477.109A144 144 0 0 0 315.622 501.7547Z" fill="rgb(113,255,56)" stroke="white" stroke-width="0" stroke-linejoin="bevel"></path><path d="M30.0687 611.7335A450 450 0 0 1 23.2809 592.8663L142.7622 552.8638A324 324 0 0 0 147.6495 566.4481Z" fill="rgb(141,255,96)" stroke="white" stroke-width="0" stroke-linejoin="bevel"></path><path d="M23.2809 592.8663A450 450 0 0 1 14.6914 564.0456L136.5778 532.1128A324 324 0 0 0 142.7622 552.8638Z" fill="rgb(141,255,96)" stroke="white" stroke-width="0" stroke-linejoin="bevel"></path><path d="M14.6914 564.0456A450 450 0 0 1 8.0461 534.7155L131.7932 510.9952A324 324 0 0 0 136.5778 532.1128Z" fill="rgb(141,255,96)" stroke="white" stroke-width="0" stroke-linejoin="bevel"></path><path d="M343.9311 470.3317A108 108 0 0 1 450 342L450 414A36 36 0 0 0 414.6437 456.7772Z" fill="#3a7aff" stroke="white" stroke-width="0" stroke-linejoin="bevel"></path><path d="M167.1495 504.2179A288 288 0 0 1 164.1598 485.2045L307.0799 467.6023A144 144 0 0 0 308.5747 477.109Z" fill="rgb(90,144,255)" stroke="white" stroke-width="0" stroke-linejoin="bevel"></path><path d="M164.1598 485.2045A288 288 0 0 1 162.4467 466.0339L306.2233 458.0169A144 144 0 0 0 307.0799 467.6023Z" fill="rgb(90,144,255)" stroke="white" stroke-width="0" stroke-linejoin="bevel"></path><path d="M162.4467 466.0339A288 288 0 0 1 162.0179 446.7916L306.0089 448.3958A144 144 0 0 0 306.2233 458.0169Z" fill="rgb(90,144,255)" stroke="white" stroke-width="0" stroke-linejoin="bevel"></path><path d="M162.0179 446.7916A288 288 0 0 1 162.8753 427.5637L306.4376 438.7819A144 144 0 0 0 306.0089 448.3958Z" fill="rgb(90,144,255)" stroke="white" stroke-width="0" stroke-linejoin="bevel"></path><path d="M162.8753 427.5637A288 288 0 0 1 165.015 408.436L307.5075 429.218A144 144 0 0 0 306.4376 438.7819Z" fill="rgb(90,144,255)" stroke="white" stroke-width="0" stroke-linejoin="bevel"></path><path d="M165.015 408.436A288 288 0 0 1 168.4276 389.4939L309.2138 419.747A144 144 0 0 0 307.5075 429.218Z" fill="rgb(90,144,255)" stroke="white" stroke-width="0" stroke-linejoin="bevel"></path><path d="M168.4276 389.4939A288 288 0 0 1 173.0978 370.8221L311.5489 410.411A144 144 0 0 0 309.2138 419.747Z" fill="rgb(90,144,255)" stroke="white" stroke-width="0" stroke-linejoin="bevel"></path><path d="M173.0978 370.8221A288 288 0 0 1 411.6134 164.5697L430.8067 307.2848A144 144 0 0 0 311.5489 410.411Z" fill="rgb(90,144,255)" stroke="white" stroke-width="0" stroke-linejoin="bevel"></path><path d="M17.3402 326.2845A450 450 0 0 1 26.5697 297.6623L145.1302 340.3168A324 324 0 0 0 138.485 360.9248Z" fill="rgb(123,166,255)" stroke="white" stroke-width="0" stroke-linejoin="bevel"></path><path d="M26.5697 297.6623A450 450 0 0 1 37.6903 269.7204L153.137 320.1987A324 324 0 0 0 145.1302 340.3168Z" fill="rgb(123,166,255)" stroke="white" stroke-width="0" stroke-linejoin="bevel"></path><path d="M37.6903 269.7204A450 450 0 0 1 50.6524 242.5838L162.4697 300.6603A324 324 0 0 0 153.137 320.1987Z" fill="rgb(123,166,255)" stroke="white" stroke-width="0" stroke-linejoin="bevel"></path><path d="M50.6524 242.5838A450 450 0 0 1 65.3981 216.3735L173.0866 281.7889A324 324 0 0 0 162.4697 300.6603Z" fill="rgb(123,166,255)" stroke="white" stroke-width="0" stroke-linejoin="bevel"></path><path d="M65.3981 216.3735A450 450 0 0 1 81.8615 191.2066L184.9402 263.6688A324 324 0 0 0 173.0866 281.7889Z" fill="rgb(123,166,255)" stroke="white" stroke-width="0" stroke-linejoin="bevel"></path><path d="M81.8615 191.2066A450 450 0 0 1 99.969 167.1956L197.9777 246.3808A324 324 0 0 0 184.9402 263.6688Z" fill="rgb(123,166,255)" stroke="white" stroke-width="0" stroke-linejoin="bevel"></path><path d="M411.6134 164.5697A288 288 0 0 1 430.7637 162.6431L440.3819 306.3216A144 144 0 0 0 430.8067 307.2848Z" fill="rgb(90,144,255)" stroke="white" stroke-width="0" stroke-linejoin="bevel"></path><path d="M430.7637 162.6431A288 288 0 0 1 450 162L450 306A144 144 0 0 0 440.3819 306.3216Z" fill="rgb(90,144,255)" stroke="white" stroke-width="0" stroke-linejoin="bevel"></path><text dominant-baseline="central" text-anchor="middle" style="font-size:12px;font-family:sans-serif;" transform="matrix(0.964,-0.264,0.264,0.964,519.4418,430.9779)" fill="#000">Back-End</text><text dominant-baseline="central" text-anchor="middle" style="font-size:12px;font-family:sans-serif;" transform="matrix(0.221,-0.975,0.975,0.221,497.7293,239.3393)" fill="#000">Rust</text><text dominant-baseline="central" text-anchor="middle" style="font-size:12px;font-family:sans-serif;" transform="matrix(0.022,-1,1,0.022,458.622,63.0961)" fill="#000">tokio</text><text dominant-baseline="central" text-anchor="middle" style="font-size:12px;font-family:sans-serif;" transform="matrix(0.067,-0.998,0.998,0.067,475.8487,63.8642)" fill="#000">warp</text><text dominant-baseline="central" text-anchor="middle" style="font-size:12px;font-family:sans-serif;" transform="matrix(0.111,-0.994,0.994,0.111,493.0242,65.399)" fill="#000">Ethers-rs</text><text dominant-baseline="central" text-anchor="middle" style="font-size:12px;font-family:sans-serif;" transform="matrix(0.461,-0.887,0.887,0.461,549.5598,258.3131)" fill="#000">Lua</text><text dominant-baseline="central" text-anchor="middle" style="font-size:12px;font-family:sans-serif;" transform="matrix(0.584,-0.812,0.812,0.584,576.1817,274.6883)" fill="#000">Golang</text><text dominant-baseline="central" text-anchor="middle" style="font-size:12px;font-family:sans-serif;" xml:space="preserve" transform="matrix(0.51,-0.86,0.86,0.51,647.2216,117.0246)" fill="#000">Gorilla mux</text><text dominant-baseline="central" text-anchor="middle" style="font-size:12px;font-family:sans-serif;" transform="matrix(0.547,-0.837,0.837,0.547,661.8589,126.1407)" fill="#000">fasthttp</text><text dominant-baseline="central" text-anchor="middle" style="font-size:12px;font-family:sans-serif;" transform="matrix(0.584,-0.812,0.812,0.584,676.0755,135.8999)" fill="#000">Gorm</text><text dominant-baseline="central" text-anchor="middle" style="font-size:12px;font-family:sans-serif;" transform="matrix(0.897,-0.441,0.441,0.897,643.8574,354.7355)" fill="#000">PHP</text><text dominant-baseline="central" text-anchor="middle" style="font-size:12px;font-family:sans-serif;" transform="matrix(0.887,-0.461,0.461,0.887,793.4389,271.622)" fill="#000">Laravel</text><text dominant-baseline="central" text-anchor="middle" style="font-size:12px;font-family:sans-serif;" transform="matrix(0.995,-0.1,0.1,0.995,835.0564,411.263)" fill="#000">Symphony</text><text dominant-baseline="central" text-anchor="middle" style="font-size:12px;font-family:sans-serif;" transform="matrix(1,-0.011,0.011,1,665.9866,447.5937)" fill="#000">Python</text><text dominant-baseline="central" text-anchor="middle" style="font-size:12px;font-family:sans-serif;" transform="matrix(0.998,-0.056,0.056,0.998,836.3998,428.4545)" fill="#000">Django</text><text dominant-baseline="central" text-anchor="middle" style="font-size:12px;font-family:sans-serif;" transform="matrix(1,-0.011,0.011,1,836.976,445.6888)" fill="#000">flux</text><text dominant-baseline="central" text-anchor="middle" style="font-size:12px;font-family:sans-serif;" transform="matrix(0.855,0.519,-0.519,0.855,634.6089,562.1407)" fill="#000">TypeScript</text><text dominant-baseline="central" text-anchor="middle" style="font-size:12px;font-family:sans-serif;" transform="matrix(0.997,0.078,-0.078,0.997,835.8239,480.1488)" fill="#000">express.js</text><text dominant-baseline="central" text-anchor="middle" style="font-size:12px;font-family:sans-serif;" transform="matrix(0.993,0.122,-0.122,0.993,834.0978,497.3061)" fill="#000">koa</text><text dominant-baseline="central" text-anchor="middle" style="font-size:12px;font-family:sans-serif;" transform="matrix(0.973,0.232,-0.232,0.973,826.4576,539.7144)" fill="#000">next.js</text><text dominant-baseline="central" text-anchor="middle" style="font-size:12px;font-family:sans-serif;" transform="matrix(0.941,0.339,-0.339,0.941,814.1501,581.0104)" fill="#000">nest.js</text><text dominant-baseline="central" text-anchor="middle" style="font-size:12px;font-family:sans-serif;" transform="matrix(0.925,0.38,-0.38,0.925,807.9525,597.1021)" fill="#000">WebSocket</text><text dominant-baseline="central" text-anchor="middle" style="font-size:12px;font-family:sans-serif;" transform="matrix(0.897,0.441,-0.441,0.897,797.3278,620.6822)" fill="#000">prisma</text><text dominant-baseline="central" text-anchor="middle" style="font-size:12px;font-family:sans-serif;" transform="matrix(0.866,0.5,-0.5,0.866,785.1518,643.5)" fill="#000">sequelize</text><text dominant-baseline="central" text-anchor="middle" style="font-size:12px;font-family:sans-serif;" transform="matrix(0.843,0.538,-0.538,0.843,776.1993,658.2379)" fill="#000">TypeOrm</text><text dominant-baseline="central" text-anchor="middle" style="font-size:12px;font-family:sans-serif;" transform="matrix(0.805,0.593,-0.593,0.805,761.5621,679.5606)" fill="#000">GraphQL</text><text dominant-baseline="central" text-anchor="middle" style="font-size:12px;font-family:sans-serif;" transform="matrix(0.133,0.991,-0.991,0.133,459.5967,521.3576)" fill="#000">DBMS</text><text dominant-baseline="central" text-anchor="middle" style="font-size:12px;font-family:sans-serif;" transform="matrix(0.307,0.952,-0.952,0.307,516.2898,655.5764)" fill="#000">PostgreSQL</text><text dominant-baseline="central" text-anchor="middle" style="font-size:12px;font-family:sans-serif;" transform="matrix(0.045,0.999,-0.999,0.045,459.6221,665.7856)" fill="#000">MySQL</text><text dominant-baseline="central" text-anchor="middle" style="font-size:12px;font-family:sans-serif;" transform="matrix(0.045,-0.999,0.999,0.045,440.3779,665.7856)" fill="#000">ClickHouse</text><text dominant-baseline="central" text-anchor="middle" style="font-size:12px;font-family:sans-serif;" transform="matrix(0.133,-0.991,0.991,0.133,421.21,664.0727)" fill="#000">Redis</text><text dominant-baseline="central" text-anchor="middle" style="font-size:12px;font-family:sans-serif;" transform="matrix(0.221,-0.975,0.975,0.221,402.2707,660.6607)" fill="#000">MongoDB</text><text dominant-baseline="central" text-anchor="middle" style="font-size:12px;font-family:sans-serif;" transform="matrix(0.547,-0.837,0.837,0.547,410.5844,510.2529)" fill="#000">DevOps</text><text dominant-baseline="central" text-anchor="middle" style="font-size:12px;font-family:sans-serif;" transform="matrix(0.431,-0.902,0.902,0.431,356.901,644.9066)" fill="#000">Ci/Cd</text><text dominant-baseline="central" text-anchor="middle" style="font-size:12px;font-family:sans-serif;" transform="matrix(0.328,-0.945,0.945,0.328,323.0544,815.5869)" fill="#000">Docker</text><text dominant-baseline="central" text-anchor="middle" style="font-size:12px;font-family:sans-serif;" transform="matrix(0.411,-0.912,0.912,0.411,291.019,802.8372)" fill="#000">K8s</text><text dominant-baseline="central" text-anchor="middle" style="font-size:12px;font-family:sans-serif;" transform="matrix(0.451,-0.893,0.893,0.451,275.4591,795.4048)" fill="#000">Ansible</text><text dominant-baseline="central" text-anchor="middle" style="font-size:12px;font-family:sans-serif;" xml:space="preserve" transform="matrix(0.49,-0.872,0.872,0.49,260.2457,787.2867)" fill="#000">GitHub actions</text><text dominant-baseline="central" text-anchor="middle" style="font-size:12px;font-family:sans-serif;" xml:space="preserve" transform="matrix(0.529,-0.849,0.849,0.529,245.409,778.4989)" fill="#000">GitLab Ci/Cd</text><text dominant-baseline="central" text-anchor="middle" style="font-size:12px;font-family:sans-serif;" transform="matrix(0.566,-0.824,0.824,0.566,230.9785,769.0589)" fill="#000">CircleCi</text><text dominant-baseline="central" text-anchor="middle" style="font-size:12px;font-family:sans-serif;" transform="matrix(0.687,-0.727,0.727,0.687,301.5774,606.9291)" fill="#000">Infra</text><text dominant-baseline="central" text-anchor="middle" style="font-size:12px;font-family:sans-serif;" transform="matrix(0.62,-0.785,0.785,0.62,210.1568,753.7174)" fill="#000">AWS</text><text dominant-baseline="central" text-anchor="middle" style="font-size:12px;font-family:sans-serif;" transform="matrix(0.671,-0.742,0.742,0.671,190.4063,737.0194)" fill="#000">Terraform</text><text dominant-baseline="central" text-anchor="middle" style="font-size:12px;font-family:sans-serif;" transform="matrix(0.703,-0.711,0.711,0.703,177.8782,725.1704)" fill="#000">Prometheus</text><text dominant-baseline="central" text-anchor="middle" style="font-size:12px;font-family:sans-serif;" transform="matrix(0.734,-0.679,0.679,0.734,165.8904,712.775)" fill="#000">Kafka</text><text dominant-baseline="central" text-anchor="middle" style="font-size:12px;font-family:sans-serif;" transform="matrix(0.764,-0.646,0.646,0.764,154.4666,699.858)" fill="#000">RabbitMQ</text><text dominant-baseline="central" text-anchor="middle" style="font-size:12px;font-family:sans-serif;" transform="matrix(0.907,-0.421,0.421,0.907,384.6895,480.3073)" fill="#000">Blockchain</text><text dominant-baseline="central" text-anchor="middle" style="font-size:12px;font-family:sans-serif;" transform="matrix(0.798,-0.602,0.602,0.798,277.543,580.0561)" fill="#000">Geth</text><text dominant-baseline="central" text-anchor="middle" style="font-size:12px;font-family:sans-serif;" transform="matrix(0.866,-0.5,0.5,0.866,262.9385,558)" fill="#000">Solidity</text><text dominant-baseline="central" text-anchor="middle" style="font-size:12px;font-family:sans-serif;" transform="matrix(0.849,-0.529,0.529,0.849,121.5011,654.591)" fill="#000">Hardhat</text><text dominant-baseline="central" text-anchor="middle" style="font-size:12px;font-family:sans-serif;" transform="matrix(0.893,-0.451,0.451,0.893,104.5952,624.5409)" fill="#000">Forge</text><text dominant-baseline="central" text-anchor="middle" style="font-size:12px;font-family:sans-serif;" transform="matrix(0.921,-0.39,0.39,0.921,251.1396,534.3241)" fill="#000">Dune</text><text dominant-baseline="central" text-anchor="middle" style="font-size:12px;font-family:sans-serif;" transform="matrix(0.961,-0.275,0.275,0.961,242.3233,509.3834)" fill="#000">DApps</text><text dominant-baseline="central" text-anchor="middle" style="font-size:12px;font-family:sans-serif;" transform="matrix(0.941,-0.339,0.339,0.941,85.8499,581.0104)" fill="#000">Web3.js</text><text dominant-baseline="central" text-anchor="middle" style="font-size:12px;font-family:sans-serif;" transform="matrix(0.958,-0.286,0.286,0.958,79.121,560.5339)" fill="#000">Ethers.js</text><text dominant-baseline="central" text-anchor="middle" style="font-size:12px;font-family:sans-serif;" xml:space="preserve" transform="matrix(0.975,-0.221,0.221,0.975,72.5663,535.515)" fill="#000">Wagmi + Viem</text><text dominant-baseline="central" text-anchor="middle" style="font-size:12px;font-family:sans-serif;" transform="matrix(0.771,0.637,-0.637,0.771,394.5026,404.1302)" fill="#000">Front-End</text><text dominant-baseline="central" text-anchor="middle" style="font-size:12px;font-family:sans-serif;" transform="matrix(0.988,-0.155,0.155,0.988,236.6218,483.5522)" fill="#000">Socket.io</text><text dominant-baseline="central" text-anchor="middle" style="font-size:12px;font-family:sans-serif;" transform="matrix(0.996,-0.089,0.089,0.996,234.8573,469.2251)" fill="#000">Jquery</text><text dominant-baseline="central" text-anchor="middle" style="font-size:12px;font-family:sans-serif;" transform="matrix(1,-0.022,0.022,1,234.0536,454.8123)" fill="#000">Lodash</text><text dominant-baseline="central" text-anchor="middle" style="font-size:12px;font-family:sans-serif;" transform="matrix(0.999,0.045,-0.045,0.999,234.2144,440.3779)" fill="#000">Vite</text><text dominant-baseline="central" text-anchor="middle" style="font-size:12px;font-family:sans-serif;" transform="matrix(0.994,0.111,-0.111,0.994,235.339,425.9865)" fill="#000">SCSS</text><text dominant-baseline="central" text-anchor="middle" style="font-size:12px;font-family:sans-serif;" transform="matrix(0.984,0.177,-0.177,0.984,237.4223,411.7023)" fill="#000">Tailwind</text><text dominant-baseline="central" text-anchor="middle" style="font-size:12px;font-family:sans-serif;" transform="matrix(0.97,0.243,-0.243,0.97,240.455,397.5892)" fill="#000">Vue</text><text dominant-baseline="central" text-anchor="middle" style="font-size:12px;font-family:sans-serif;" transform="matrix(0.654,0.756,-0.756,0.654,308.7155,286.6149)" fill="#000">React</text><text dominant-baseline="central" text-anchor="middle" style="font-size:12px;font-family:sans-serif;" transform="matrix(0.952,0.307,-0.307,0.952,81.6756,331.2308)" fill="#000">Chakra-UI</text><text dominant-baseline="central" text-anchor="middle" style="font-size:12px;font-family:sans-serif;" transform="matrix(0.929,0.37,-0.37,0.929,90.431,306.8947)" fill="#000">MUI</text><text dominant-baseline="central" text-anchor="middle" style="font-size:12px;font-family:sans-serif;" transform="matrix(0.902,0.431,-0.431,0.902,100.7924,283.1977)" fill="#000">Styled-Components</text><text dominant-baseline="central" text-anchor="middle" style="font-size:12px;font-family:sans-serif;" transform="matrix(0.872,0.49,-0.49,0.872,112.7133,260.2457)" fill="#000">Redux</text><text dominant-baseline="central" text-anchor="middle" style="font-size:12px;font-family:sans-serif;" transform="matrix(0.837,0.547,-0.547,0.837,126.1407,238.1411)" fill="#000">Recoil</text><text dominant-baseline="central" text-anchor="middle" style="font-size:12px;font-family:sans-serif;" transform="matrix(0.798,0.602,-0.602,0.798,141.0146,216.9828)" fill="#000">Tanstack</text><text dominant-baseline="central" text-anchor="middle" style="font-size:12px;font-family:sans-serif;" transform="matrix(0.1,0.995,-0.995,0.1,428.3793,235.0848)" fill="#000">WebGL</text><text dominant-baseline="central" text-anchor="middle" style="font-size:12px;font-family:sans-serif;" transform="matrix(0.033,0.999,-0.999,0.033,442.7824,234.1206)" fill="#000">WASM</text></g></svg>